<svg width="57" height="58" viewBox="0 0 57 58" fill="none" xmlns="http://www.w3.org/2000/svg">
<g clip-path="url(#clip0_101_43)">
<path d="M28 28.881H12.0669C12.3259 20.1928 19.3118 13.2069 28 12.9479V28.881ZM29 29.881H44.9331C44.6741 38.5693 37.6882 45.5552 29 45.8142V29.881Z" stroke="white"/>
<path d="M28.5 12.4922C37.8336 12.4922 45.3889 20.0475 45.3889 29.3811H28.5V12.4922ZM11.6111 29.3811H28.5V46.2699C19.1664 46.2699 11.6111 38.7147 11.6111 29.3811Z" fill="white"/>
<path d="M28.5 12.4922V13.4181C37.3011 13.4181 44.4629 20.5783 44.4629 29.381H45.3889C45.3889 20.0541 37.8269 12.4922 28.5 12.4922ZM28.5 45.3439C19.6989 45.3439 12.5371 38.1838 12.5371 29.381H11.6111C11.6111 38.7079 19.1731 46.2699 28.5 46.2699M28.5 0.881042C12.7603 0.881042 0 13.6414 0 29.381C0 45.1207 12.7603 57.881 28.5 57.881C44.2397 57.881 57 45.1207 57 29.381C57 13.6414 44.2397 0.881042 28.5 0.881042ZM55.1467 29.381C55.1467 44.0969 43.2175 56.0277 28.5 56.0277C13.7825 56.0277 1.8533 44.0969 1.8533 29.381C1.8533 14.6652 13.7842 2.73435 28.5 2.73435C43.2158 2.73435 55.1467 14.6652 55.1467 29.381Z" fill="white"/>
<path d="M16.3207 15.6321C17.2314 14.6794 17.7471 13.5787 16.8363 12.528C16.3408 11.9577 15.5087 11.833 14.819 12.114L14.7504 12.1406L14.7721 12.0807C14.8742 11.8097 14.9395 10.9452 14.1979 10.3483C13.8363 10.0574 13.3826 9.9493 12.9239 9.99585C12.0684 10.0823 11.4105 10.6626 9.61914 12.646C9.07839 13.2446 8.29155 14.1889 7.81944 14.8008L12.7397 19.4361C14.3703 17.6438 15.035 16.9771 16.3207 15.6321ZM9.90039 14.4982C10.8915 13.2944 11.9445 12.2021 12.4216 11.7698C12.5723 11.6335 12.7364 11.4972 12.9356 11.444C13.2587 11.3559 13.5919 11.5836 13.6672 11.9128C13.7425 12.2437 13.5333 12.5579 13.3006 12.8173C12.7766 13.4042 10.8546 15.401 10.8546 15.401L9.90039 14.4982ZM11.8273 16.3137C11.8273 16.3137 13.699 14.3485 14.3101 13.7201C14.5528 13.4707 14.7085 13.3194 14.8759 13.2379C15.0919 13.1332 15.3279 13.1116 15.5389 13.2512C15.7465 13.3892 15.8419 13.627 15.79 13.8631C15.7281 14.144 15.497 14.4117 15.3062 14.6162C15.0484 14.8905 12.8285 17.2498 12.8251 17.2531L11.8273 16.3137ZM29.0625 10.1039L30.6379 6.59917L30.7383 6.28826L30.7099 6.61247L30.8756 11.296C31.4281 11.3475 31.999 11.424 32.5615 11.5171L32.3053 4.58077C31.5185 4.49432 30.735 4.4328 29.9515 4.39955L28.3996 8.22519L28.3443 8.50949L28.2891 8.22519L26.7388 4.39955C25.9553 4.4328 25.1718 4.49432 24.385 4.58077L24.1289 11.5171C24.6914 11.424 25.2622 11.3492 25.8147 11.296L25.9804 6.61247L25.952 6.28826L26.0524 6.59917L27.6278 10.1039H29.0625ZM42.1459 17.3545C42.5326 17.7668 43.0901 18.4319 43.4032 18.8359L49.1689 15.2014C48.8809 14.8274 48.4222 14.2587 48.079 13.8581L44.4277 16.2555L44.1783 16.4683L44.3641 16.199L45.9763 13.0035L44.8362 11.8713L41.6169 13.4723L41.3456 13.6569L41.5616 13.4092L43.9774 9.7847C43.5522 9.42558 43.1437 9.09639 42.623 8.69736L38.9634 14.4184C39.4271 14.7725 40.0381 15.2929 40.4282 15.647L43.8736 13.8714L44.0946 13.7101L43.9322 13.9296L42.1459 17.3545Z" fill="white"/>
</g>
<defs>
<clipPath id="clip0_101_43">
<rect width="57" height="57" fill="white" transform="translate(0 0.881042)"/>
</clipPath>
</defs>
</svg>
