<svg width="162" height="21" viewBox="0 0 162 21" fill="none" xmlns="http://www.w3.org/2000/svg">
<g clip-path="url(#clip0_101_54)">
<path d="M0 18.931H14.8V16.431L12.3 16.131C11.7 16.031 11.1 15.731 11.1 14.431V11.431H22.5V14.231C22.5 15.031 22.4 15.831 21.4 15.931L18.8 16.231V18.931H33.6V16.431L31 16.131C30.5 16.031 29.9 15.631 29.9 14.631V4.93105C29.9 3.93105 30.3 3.33105 31 3.23105L33.6 2.93105V0.431046H18.8V2.93105L21.4 3.23105C22.2 3.33105 22.5 4.03105 22.5 4.93105V7.83105H11.1V4.93105C11.1 3.83105 11.5 3.33105 12.3 3.23105L14.8 2.93105V0.431046H0V2.93105L2.5 3.23105C3.5 3.33105 3.7 4.03105 3.7 5.03105V14.431C3.7 15.431 3.4 16.131 2.5 16.231L0 16.531V18.931Z" fill="white"/>
<path d="M33.6 10.331C33.6 4.53105 38.3 0.431046 48.7 0.431046C59.1 0.531046 63.8 4.53105 63.8 10.331C63.8 16.231 59.1 20.331 48.7 20.331C38.3 20.331 33.6 16.331 33.6 10.331ZM48.7 4.03105C44.5 4.03105 42.1 5.63105 42.1 10.331C42.1 15.231 44.5 16.731 48.7 16.731C52.9 16.731 55.3 15.131 55.3 10.331C55.3 5.63105 52.9 4.03105 48.7 4.03105Z" fill="white"/>
<path d="M63.8 18.931H75.6V16.431L73 16.131C72.3 16.031 71.8 15.431 71.8 14.631V5.23105L81.6 18.131C81.9 18.531 82.5 18.831 83.1 18.831H92.4V4.93105C92.4 4.23105 92.6 3.33105 93.5 3.23105L96.2 2.93105V0.431046H84.4V2.93105L87 3.23105C87.9 3.33105 88.1 4.13105 88.1 4.93105V14.031L78.3 1.23105C77.9 0.731045 77.5 0.431046 76.8 0.431046H63.8V2.93105L66.3 3.23105C67.2 3.33105 67.5 3.83105 67.5 5.03105V14.431C67.5 15.531 67.2 16.031 66.3 16.231L63.9 16.531V18.931" fill="white"/>
<path d="M114.5 0.431046H96.2V2.93105L98.5 3.13105C99.3 3.23105 99.7 3.83105 99.7 4.73105C99.7 5.53105 99.7 13.931 99.7 14.631C99.7 15.331 99.4 15.931 98.7 16.031L96.2 16.331V18.731H114.5C122.9 18.731 126.5 14.631 126.5 9.23105C126.6 4.53105 122.9 0.431046 114.5 0.431046ZM111.7 15.331H107V3.93105H111.7C116.2 3.93105 118.1 4.93105 118.1 9.63105C118.1 14.331 116.2 15.331 111.7 15.331Z" fill="white"/>
<path d="M126.502 18.931V16.431L129.002 16.131C129.902 16.031 130.202 15.231 130.302 15.031L136.602 4.93105C137.102 4.13105 136.602 3.43105 136.002 3.33105L132.702 2.93105V0.431046H146.902C147.702 0.431046 148.202 1.03105 148.502 1.43105L156.802 14.131C157.502 15.131 158.002 15.931 158.802 16.031L161.402 16.331V18.931H145.402V16.431L147.402 16.231C148.402 16.131 149.202 15.631 148.402 14.531L147.602 13.331H136.302L135.402 14.731C134.902 15.631 135.402 16.131 136.202 16.231L138.202 16.431V18.931H126.502ZM138.402 9.93105H145.602L141.902 4.23105L138.402 9.93105Z" fill="white"/>
</g>
<defs>
<clipPath id="clip0_101_54">
<rect width="161.402" height="19.9" fill="white" transform="translate(0 0.431046)"/>
</clipPath>
</defs>
</svg>
