<svg width="222" height="18" viewBox="0 0 222 18" fill="none" xmlns="http://www.w3.org/2000/svg">
<g clip-path="url(#clip0_101_41)">
<path d="M3.76001 3.70539L11.4007 17.399L20.2478 17.4058L27.758 3.70343L31.5224 3.70539V1.22208H20.1993V3.70343H23.4695L18.0007 13.6787L12.4583 3.70539L16.4329 3.70343L16.4319 1.22208H0.00328823L0 3.70539H3.76001ZM101.109 3.69891L101.107 1.22217L116.257 1.22415V3.69891H112.483V14.8772H115.982C119.224 14.8772 121.349 12.7655 121.349 9.8995H123.848V17.3846L101.107 17.3864V14.8806H104.926L104.921 3.69891H101.109ZM64.2892 15.31C61.5113 15.2604 60.29 12.2316 60.3433 9.22209C60.3985 6.10527 61.9104 3.38751 64.5127 3.43221C67.115 3.47726 68.489 6.24701 68.4331 9.36231C68.3803 12.3014 67.1503 15.3613 64.2892 15.31ZM64.3736 0.881042C56.7664 0.881042 52.7261 4.62472 52.7261 9.3222C52.7261 14.0846 56.6165 17.881 64.4176 17.881C72.216 17.881 76.0651 14.0846 76.0651 9.3222C76.0651 4.62472 71.982 0.881042 64.3736 0.881042ZM149.69 3.70539L157.331 17.399L166.178 17.4058L173.688 3.70343L177.452 3.70539V1.22208H166.129V3.70343H169.399L163.931 13.6787L158.388 3.70539L162.363 3.70343L162.362 1.22208H145.933L145.93 3.70539H149.69ZM210.224 15.31C207.446 15.2604 206.225 12.2316 206.278 9.22209C206.333 6.10527 207.845 3.38751 210.447 3.43221C213.05 3.47726 214.424 6.24701 214.368 9.36231C214.315 12.3014 213.085 15.3613 210.224 15.31ZM210.308 0.881042C202.701 0.881042 198.661 4.62472 198.661 9.3222C198.661 14.0846 202.551 17.881 210.352 17.881C218.151 17.881 222 14.0846 222 9.3222C222 4.62472 217.917 0.881042 210.308 0.881042Z" fill="white"/>
</g>
<defs>
<clipPath id="clip0_101_41">
<rect width="222" height="17" fill="white" transform="translate(0 0.881042)"/>
</clipPath>
</defs>
</svg>
