<svg width="204" height="55" viewBox="0 0 204 55" fill="none" xmlns="http://www.w3.org/2000/svg">
<g clip-path="url(#clip0_101_6)">
<path d="M102.567 32.1394H81.991C82.3927 33.2101 83.1578 34.1095 84.1556 34.6841C85.163 35.272 86.4267 35.5666 87.9466 35.5678C89.2462 35.5678 90.3386 35.4071 91.2238 35.0858C92.2665 34.675 93.2427 34.1154 94.1214 33.4248L100.512 39.7996C97.6215 42.9422 93.3073 44.5135 87.5689 44.5135C83.9938 44.5135 80.8526 43.8614 78.1452 42.5573C75.4378 41.2532 73.3436 39.4409 71.8628 37.1204C70.3819 34.7999 69.6421 32.1942 69.6433 29.3032C69.6433 26.3774 70.3743 23.7617 71.8363 21.4562C73.3012 19.1489 75.3809 17.2857 77.8467 16.0716C80.393 14.7861 83.254 14.1434 86.4299 14.1434C89.4281 14.1434 92.1633 14.7326 94.6352 15.9109C97.0638 17.05 99.1121 18.853 100.538 21.1068C102 23.3911 102.731 26.1227 102.731 29.3014C102.731 29.4795 102.676 30.4255 102.567 32.1394ZM83.3982 23.4086C82.5671 24.0874 82.0256 25.0515 81.7737 26.3008H91.3051C91.0532 25.0876 90.5117 24.1323 89.6806 23.4347C88.8495 22.7372 87.8024 22.3891 86.5394 22.3903C85.2764 22.3903 84.2293 22.7298 83.3982 23.4086Z" fill="white"/>
<path d="M169.071 35.14V43.9773H140.802V37.0139L153.04 23.5114H141.234V14.6778H168.474V21.643L156.236 35.1419L169.071 35.14Z" fill="white"/>
<path d="M125.016 10.5786C124.363 10.0406 123.842 9.36391 123.49 8.59889C123.138 7.83387 122.965 7.00022 122.984 6.15995C122.965 5.31969 123.138 4.48603 123.49 3.72102C123.842 2.956 124.363 2.27931 125.016 1.7413C126.369 0.580434 128.147 0 130.35 0C132.587 0 134.374 0.553655 135.711 1.66096C136.356 2.17537 136.872 2.82978 137.219 3.5734C137.567 4.31702 137.737 5.12986 137.715 5.94883C137.715 7.80597 137.047 9.33304 135.711 10.53C134.375 11.727 132.588 12.3249 130.35 12.3236C128.148 12.3212 126.37 11.7395 125.016 10.5786ZM124.23 14.6778H136.468V43.9772H124.23V14.6778Z" fill="white"/>
<path d="M106.577 4.23181H118.811V43.9773H106.577V4.23181Z" fill="white"/>
<path d="M203.838 32.1394H183.249C183.652 33.2099 184.417 34.1091 185.415 34.6841C186.423 35.272 187.686 35.5666 189.206 35.5678C190.506 35.5678 191.598 35.4071 192.483 35.0858C193.526 34.675 194.502 34.1154 195.381 33.4248L201.769 39.7996C198.882 42.9422 194.568 44.5135 188.827 44.5135C185.253 44.5135 182.112 43.8614 179.405 42.5573C176.697 41.2532 174.603 39.4409 173.122 37.1204C171.648 34.7999 170.911 32.1942 170.912 29.3032C170.912 26.3774 171.643 23.7617 173.105 21.4562C174.57 19.1489 176.65 17.2857 179.116 16.0716C181.662 14.7861 184.523 14.1434 187.699 14.1434C190.695 14.1434 193.43 14.7326 195.904 15.9109C198.333 17.05 200.381 18.853 201.807 21.1068C203.269 23.3899 204 26.1221 204 29.3032C204 29.4801 203.946 30.4255 203.838 32.1394ZM184.667 23.4086C183.836 24.0874 183.295 25.0515 183.043 26.3008H192.574C192.322 25.0876 191.78 24.1323 190.948 23.4347C190.115 22.7372 189.069 22.3891 187.808 22.3903C186.543 22.3903 185.496 22.7298 184.667 23.4086Z" fill="white"/>
<path d="M67.4824 43.8913H53.5047L49.4568 37.6454L44.9235 43.8913H31.7012L42.8778 29.4247L32.028 14.689H45.7281L67.4824 43.8913Z" fill="white"/>
<path d="M57.0294 25.1405H67.5599V14.7245L57.0294 14.7245V25.1405Z" fill="white"/>
<path d="M26.9412 15.9894C29.1493 17.2441 30.9524 19.0924 32.1413 21.3198C33.422 23.6403 34.063 26.3182 34.0642 29.3537C34.0655 32.3891 33.4245 35.059 32.1413 37.3633C30.9449 39.5781 29.143 41.4155 26.9412 42.6657C24.7557 43.8982 22.2791 44.5357 19.7634 44.5135C16.4768 44.5135 13.9671 43.674 12.2343 41.9949V54.369H0V14.6778H11.6431V17.0861C13.4061 15.1243 16.1135 14.1428 19.7653 14.1416C22.2803 14.1196 24.7563 14.7572 26.9412 15.9894ZM20.3074 33.5855C21.2103 32.589 21.6618 31.1784 21.6618 29.3537C21.6618 27.5289 21.2103 26.1096 20.3074 25.0957C19.8817 24.6018 19.3496 24.2084 18.7502 23.9443C18.1508 23.6802 17.4992 23.552 16.8432 23.5693C16.1867 23.5519 15.5345 23.6799 14.9345 23.944C14.3344 24.2081 13.8017 24.6016 13.3752 25.0957C12.4749 26.1146 12.024 27.5339 12.0228 29.3537C12.0215 31.1735 12.4723 32.5841 13.3752 33.5855C13.8062 34.072 14.3406 34.4583 14.9401 34.7167C15.5397 34.9751 16.1895 35.0992 16.8432 35.0802C17.4963 35.0991 18.1456 34.9749 18.7445 34.7165C19.3434 34.4581 19.8771 34.0718 20.3074 33.5855V33.5855Z" fill="white"/>
</g>
<defs>
<clipPath id="clip0_101_6">
<rect width="204" height="54.369" fill="white"/>
</clipPath>
</defs>
</svg>
